IKResults
version=1
nRows=13
nColumns=40
inDegrees=yes

Units are S.I. units (second, meters, Newtons, ...)
Angles are in degrees.

endheader
time	pelvis_tilt	pelvis_list	pelvis_rotation	pelvis_tx	pelvis_ty	pelvis_tz	hip_flexion_r	hip_adduction_r	hip_rotation_r	knee_angle_r	knee_angle_r_beta	ankle_angle_r	subtalar_angle_r	mtp_angle_r	hip_flexion_l	hip_adduction_l	hip_rotation_l	knee_angle_l	knee_angle_l_beta	ankle_angle_l	subtalar_angle_l	mtp_angle_l	lumbar_extension	lumbar_bending	lumbar_rotation	arm_flex_r	arm_add_r	arm_rot_r	elbow_flex_r	pro_sup_r	wrist_flex_r	wrist_dev_r	arm_flex_l	arm_add_l	arm_rot_l	elbow_flex_l	pro_sup_l	wrist_flex_l	wrist_dev_l
      0.20000000	     14.38764280	     -7.63333286	      3.66379088	     -0.47110737	      0.92953279	      0.99609385	      0.95578922	      9.20463634	     -8.55002438	    -27.47831518	     -0.47958707	      7.29209027	    -10.08300974	      2.38351649	    -11.26375189	      6.58703419	     -0.10675652	    -61.34831052	     -1.07073001	     -3.35615037	     16.54305908	     -2.17348768	    -21.99996136	      8.05288676	     -6.69447446	    -14.01824435	    -12.98634112	     -4.78669041	     22.34659329	     89.95437384	      0.00000000	      0.00000000	      7.11108602	      7.43080577	     13.54894251	     41.72660383	     89.95437384	      0.00000000	      0.00000000
      0.21000000	     14.91368060	     -7.02922634	      3.76099176	     -0.45484677	      0.93313345	      0.99684070	     -1.41602751	      8.88810767	     -8.08030460	    -26.30207783	     -0.45905786	      7.65908234	    -10.37114803	      2.32222741	     -9.98799180	      5.99374567	     -0.40717736	    -61.63493368	     -1.07573253	     -1.48818406	     16.93250079	     -1.82073853	    -22.47457971	      7.32008027	     -6.43362845	    -13.49923506	    -12.94252234	     -4.20289277	     23.51794615	     89.95437384	      0.00000000	      0.00000000	      6.62118873	      7.28128424	     13.99733969	     39.71759836	     89.95437384	      0.00000000	      0.00000000
      0.22000000	     14.96615824	     -6.42956280	      3.66569955	     -0.43893781	      0.93584104	      0.99771136	     -3.06773442	      8.48819074	     -7.53744533	    -25.48862029	     -0.44486035	      8.30544255	    -10.32434992	      2.22684696	     -8.15303255	      5.33102966	     -0.54909793	    -61.79030861	     -1.07844433	      0.28450519	     17.19653936	     -1.71346786	    -22.46268219	      6.52918991	     -6.01917154	    -12.93969234	    -12.85741835	     -3.94946911	     24.56498451	     89.95437384	      0.00000000	      0.00000000	      6.09810958	      7.16917334	     14.17765829	     37.63445104	     89.95437384	      0.00000000	      0.00000000
      0.23000000	     15.14581095	     -5.77348245	      3.51816836	     -0.42312477	      0.93855485	      0.99856220	     -4.89585506	      8.05887720	     -6.73167958	    -24.60422959	     -0.42942482	      8.70408297	    -10.55791139	      2.20592056	     -6.59155450	      4.60049093	     -0.55932219	    -61.48749673	     -1.07315927	      2.37208354	     17.49649270	     -1.49984543	    -22.62908162	      5.68393726	     -5.61099339	    -12.47568270	    -12.87218247	     -3.59945655	     26.03528941	     89.95437384	      0.00000000	      0.00000000	      5.61611466	      7.09373344	     14.63083276	     35.46265135	     89.95437384	      0.00000000	      0.00000000
      0.24000000	     15.81007795	     -5.07663510	      3.03807927	     -0.40647313	      0.94189993	      0.99979776	     -7.61241653	      7.63852185	     -5.45883471	    -23.11250845	     -0.40338937	      8.61604713	    -11.64725380	      2.43547111	     -5.94512239	      3.94573145	      0.10203781	    -60.44884524	     -1.05503138	      4.00651207	     17.72604603	     -0.49319092	    -23.23683979	      4.68850368	     -4.90281298	    -12.14843013	    -12.99154924	     -3.04510888	     27.70108885	     89.95437384	      0.00000000	      0.00000000	      5.03468854	      6.96617292	     15.33488380	     33.34514826	     89.95437384	      0.00000000	      0.00000000
      0.25000000	     15.94915098	     -4.44057427	      2.78249403	     -0.39054926	      0.94402383	      1.00081381	     -9.52760741	      7.18651818	     -4.65651063	    -21.93661665	     -0.38286619	      8.76856006	    -12.23016070	      2.70694056	     -4.48921678	      3.32920334	      0.46523507	    -59.51190691	     -1.03867872	      5.65719174	     17.85675484	      0.92256110	    -23.32843345	      3.81641844	     -4.48413986	    -11.67325404	    -13.02896243	     -2.86740399	     29.26797245	     89.95437384	      0.00000000	      0.00000000	      4.43232861	      7.00228564	     15.86321253	     31.25898634	     89.95437384	      0.00000000	      0.00000000
      0.26000000	     16.09036196	     -3.80011226	      2.62385285	     -0.37455572	      0.94573759	      1.00165118	    -11.44642058	      6.65870295	     -4.33479517	    -20.74460952	     -0.36206174	      9.01355060	    -12.41619622	      3.25152614	     -3.10376769	      2.73939926	      0.84657601	    -58.32328964	     -1.01793343	      7.10595649	     17.91990036	      4.04473943	    -23.40421556	      2.97692295	     -4.16063523	    -11.30607117	    -13.16406281	     -2.33956510	     31.02370846	     89.95437384	      0.00000000	      0.00000000	      3.80644560	      7.10635305	     16.27268666	     29.20508285	     89.95437384	      0.00000000	      0.00000000
      0.27000000	     15.60607186	     -3.22931774	      2.33709435	     -0.35952739	      0.94598255	      1.00269626	    -12.27468979	      6.06967276	     -4.34288182	    -20.16268349	     -0.35190521	      9.59949264	    -12.14986174	      3.15950514	     -0.81303068	      2.24608159	      1.39971379	    -57.26870339	     -0.99952743	      8.04903455	     18.10555715	      4.14707457	    -22.92760339	      2.13823133	     -3.75267182	    -10.76515507	    -13.24284397	     -2.16889053	     32.64165171	     89.95437384	      0.00000000	      0.00000000	      3.13279173	      7.26622953	     16.57035556	     27.35036926	     89.95437384	      0.00000000	      0.00000000
      0.28000000	     15.84148204	     -2.44418625	      1.78943812	     -0.34355338	      0.94706963	      1.00365969	    -14.08685099	      5.21822778	     -3.83620293	    -19.36561459	     -0.33799374	      9.89245982	    -12.02015703	      3.19690049	      0.16254885	      1.49827888	      2.30650413	    -55.30331514	     -0.96522494	      8.74656356	     18.29459340	      5.14560026	    -23.13042470	      1.05390212	     -3.14979457	    -10.51667238	    -13.48055027	     -1.83954821	     34.76951595	     89.95437384	      0.00000000	      0.00000000	      2.69155588	      7.23142083	     17.83873277	     24.99997971	     89.95437384	      0.00000000	      0.00000000
      0.29000000	     15.40898972	     -1.97304219	      1.66958042	     -0.32825635	      0.94650375	      1.00459409	    -14.97661280	      4.76425122	     -3.93713745	    -18.78209322	     -0.32780937	     10.47331485	    -11.80804912	      3.08077512	      2.21549724	      1.18149518	      2.88002541	    -53.75142882	     -0.93813941	      9.63779800	     18.37063364	      5.36019851	    -22.64693563	      0.36978791	     -2.85967696	    -10.12312165	    -13.66797468	     -1.55913248	     36.66702636	     89.95437384	      0.00000000	      0.00000000	      1.99450314	      7.49422463	     18.04120337	     23.13945298	     89.95437384	      0.00000000	      0.00000000
      0.30000000	     15.67841016	     -1.33293728	      1.17317622	     -0.31243577	      0.94678720	      1.00558390	    -16.73973867	      4.02350269	     -3.66019459	    -18.04889359	     -0.31501262	     10.72217540	    -11.67312887	      2.99890497	      2.99645557	      0.69923304	      3.95402985	    -51.32081609	     -0.89571722	     10.15749405	     18.37568839	      6.35372942	    -22.90378890	     -0.55596142	     -2.25863096	     -9.85748485	    -13.96128323	     -1.30678947	     38.84618896	     89.95437384	      0.00000000	      0.00000000	      1.51551002	      7.57635866	     19.21624974	     21.03839046	     89.95437384	      0.00000000	      0.00000000
      0.31000000	     15.49903881	     -0.89630533	      0.93008495	     -0.29699115	      0.94583801	      1.00639217	    -17.88411679	      3.54794096	     -3.59035140	    -17.53272832	     -0.30600384	     11.16926309	    -11.46237777	      2.85856066	      4.40745088	      0.40747981	      4.70147483	    -49.01857096	     -0.85553546	     10.88743600	     18.31324217	      6.90754070	    -22.69082410	     -1.20171957	     -1.85266050	     -9.49908992	    -14.21076752	     -1.14725425	     40.89400917	     89.95437384	      0.00000000	      0.00000000	      0.91173787	      7.81067231	     19.73291287	     19.13548923	     89.95437384	      0.00000000	      0.00000000
      0.32000000	     15.53505043	     -0.39238954	      0.54211604	     -0.28139565	      0.94486214	      1.00715256	    -19.29534043	      2.92152200	     -3.56431711	    -16.95684188	     -0.29595272	     11.51927729	    -11.15438227	      2.68795174	      5.42383280	      0.09446108	      5.80993677	    -46.39465172	     -0.80973943	     11.31323818	     18.14301699	      7.43475415	    -22.71356602	     -1.94476949	     -1.38896590	     -9.13427452	    -14.45426521	     -1.15152129	     42.99096124	     89.95437384	      0.00000000	      0.00000000	      0.26273182	      8.03202431	     20.48806111	     17.40625096	     89.95437384	      0.00000000	      0.00000000
